<svg xmlns="http://www.w3.org/2000/svg" xmlns:xlink="http://www.w3.org/1999/xlink" width="1280" zoomAndPan="magnify" viewBox="0 0 960 540.000001" height="720" preserveAspectRatio="xMidYMid meet" version="1.0"><defs><clipPath id="fb0314d6dd"><path d="M 0.886719 485.101562 L 12.863281 485.101562 L 12.863281 497.078125 L 0.886719 497.078125 Z M 0.886719 485.101562 " clip-rule="nonzero"/></clipPath></defs><path fill="#a6a6a6" d="M 660.402344 269.980469 C 649.855469 269.980469 641.222656 278.613281 641.222656 289.160156 L 641.222656 469.949219 C 641.222656 486.636719 627.601562 500.253906 610.914062 500.253906 L 287.226562 500.253906 C 270.539062 500.253906 256.917969 486.636719 256.917969 469.949219 L 256.917969 146.257812 C 256.917969 129.570312 270.539062 115.953125 287.226562 115.953125 L 468.011719 115.953125 C 478.5625 115.953125 487.195312 107.320312 487.195312 96.769531 C 487.195312 86.222656 478.5625 77.589844 468.011719 77.589844 L 287.226562 77.589844 C 249.34375 77.589844 218.554688 108.375 218.554688 146.257812 L 218.554688 469.949219 C 218.554688 507.832031 249.34375 538.617188 287.226562 538.617188 L 610.914062 538.617188 C 648.796875 538.617188 679.585938 507.832031 679.585938 469.949219 L 679.585938 289.160156 C 679.585938 278.613281 670.953125 269.980469 660.402344 269.980469 Z M 660.402344 269.980469 " fill-opacity="1" fill-rule="nonzero"/><path fill="#a6a6a6" d="M 734.253906 22.730469 L 724.277344 13.714844 C 714.113281 4.507812 700.972656 -0.191406 687.355469 0.480469 C 673.640625 1.152344 661.074219 7.097656 651.867188 17.261719 C 648.605469 20.90625 646.113281 24.9375 644.097656 29.058594 C 641.507812 28.003906 638.632812 27.332031 635.753906 27.527344 C 630.671875 27.8125 625.875 30.019531 622.519531 33.757812 L 416.796875 260.675781 C 414.496094 263.265625 412.867188 266.433594 412.195312 269.789062 L 393.394531 364.066406 C 392.054688 370.683594 394.355469 377.492188 399.34375 382 C 402.890625 385.261719 407.496094 386.988281 412.195312 386.988281 C 414.015625 386.988281 415.933594 386.699219 417.757812 386.125 L 509.730469 358.3125 C 513.089844 357.351562 516.0625 355.433594 518.363281 352.84375 L 724.085938 125.925781 C 729.746094 119.691406 730.417969 110.871094 726.675781 103.964844 C 730.703125 101.46875 734.445312 98.59375 737.707031 95.042969 C 756.695312 74.136719 755.160156 41.71875 734.253906 22.730469 Z M 680.351562 42.964844 C 682.652344 40.472656 685.820312 38.9375 689.273438 38.746094 C 689.464844 38.746094 689.65625 38.746094 689.941406 38.746094 C 693.109375 38.746094 696.175781 39.898438 698.574219 42.105469 L 708.453125 51.117188 C 713.726562 55.914062 714.113281 64.066406 709.316406 69.339844 C 707.015625 71.929688 703.851562 73.371094 700.398438 73.5625 C 697.039062 73.65625 693.683594 72.507812 691.191406 70.300781 L 687.640625 67.136719 L 681.214844 61.285156 C 675.941406 56.394531 675.558594 48.242188 680.351562 42.964844 Z M 493.523438 323.210938 L 437.320312 340.183594 L 448.832031 282.449219 L 638.058594 73.65625 L 663.375 96.578125 L 665.390625 98.402344 L 682.847656 114.226562 Z M 493.523438 323.210938 " fill-opacity="1" fill-rule="nonzero"/><g clip-path="url(#fb0314d6dd)"><path fill="#000000" d="M 9.132812 497.078125 C 8.410156 497.078125 7.8125 496.515625 7.765625 495.796875 C 7.765625 495.789062 7.765625 495.78125 7.765625 495.773438 L 7.765625 494.710938 L 5.984375 494.710938 L 5.984375 495.640625 C 6.003906 496.011719 5.867188 496.378906 5.613281 496.648438 C 5.355469 496.921875 4.992188 497.078125 4.617188 497.078125 C 3.898438 497.078125 3.296875 496.515625 3.253906 495.796875 C 3.253906 495.789062 3.253906 495.78125 3.253906 495.773438 L 3.253906 494.710938 L 2.324219 494.710938 C 1.953125 494.730469 1.585938 494.597656 1.316406 494.339844 C 1.042969 494.085938 0.886719 493.722656 0.886719 493.347656 C 0.886719 492.625 1.453125 492.023438 2.171875 491.980469 C 2.179688 491.980469 2.183594 491.980469 2.191406 491.980469 L 3.253906 491.980469 L 3.253906 490.199219 L 2.324219 490.199219 C 1.953125 490.21875 1.589844 490.082031 1.316406 489.828125 C 1.042969 489.570312 0.886719 489.207031 0.886719 488.832031 C 0.886719 488.113281 1.453125 487.511719 2.171875 487.46875 C 2.179688 487.46875 2.183594 487.46875 2.191406 487.46875 L 3.253906 487.46875 L 3.253906 486.539062 C 3.234375 486.167969 3.371094 485.800781 3.625 485.53125 C 3.882812 485.257812 4.246094 485.101562 4.621094 485.101562 C 5.34375 485.101562 5.941406 485.664062 5.984375 486.386719 C 5.984375 486.394531 5.984375 486.398438 5.984375 486.40625 L 5.984375 487.46875 L 7.769531 487.46875 L 7.769531 486.539062 C 7.75 486.167969 7.882812 485.800781 8.136719 485.53125 C 8.394531 485.257812 8.757812 485.101562 9.132812 485.101562 C 9.855469 485.101562 10.453125 485.664062 10.496094 486.386719 C 10.5 486.394531 10.5 486.398438 10.5 486.40625 L 10.5 487.46875 L 11.425781 487.46875 C 11.796875 487.449219 12.164062 487.585938 12.433594 487.839844 C 12.707031 488.097656 12.863281 488.460938 12.863281 488.835938 C 12.863281 489.554688 12.300781 490.15625 11.582031 490.199219 C 11.574219 490.199219 11.566406 490.199219 11.558594 490.199219 L 10.496094 490.199219 L 10.496094 491.984375 L 11.425781 491.984375 C 11.796875 491.964844 12.164062 492.097656 12.433594 492.351562 C 12.707031 492.609375 12.863281 492.972656 12.863281 493.347656 C 12.863281 494.070312 12.300781 494.667969 11.582031 494.710938 C 11.574219 494.714844 11.566406 494.714844 11.558594 494.714844 L 10.496094 494.714844 L 10.496094 495.640625 C 10.515625 496.011719 10.382812 496.378906 10.128906 496.648438 C 9.871094 496.921875 9.507812 497.078125 9.132812 497.078125 Z M 8.449219 495.761719 C 8.476562 496.117188 8.773438 496.394531 9.132812 496.394531 C 9.320312 496.394531 9.5 496.320312 9.628906 496.179688 C 9.757812 496.042969 9.824219 495.859375 9.8125 495.671875 C 9.8125 495.664062 9.8125 495.65625 9.8125 495.652344 L 9.8125 494.371094 C 9.8125 494.28125 9.847656 494.191406 9.914062 494.128906 C 9.976562 494.0625 10.0625 494.027344 10.15625 494.027344 L 11.546875 494.027344 C 11.902344 494.003906 12.179688 493.707031 12.179688 493.347656 C 12.179688 493.15625 12.105469 492.980469 11.964844 492.851562 C 11.828125 492.71875 11.644531 492.65625 11.457031 492.667969 C 11.449219 492.667969 11.441406 492.667969 11.4375 492.667969 L 10.15625 492.667969 C 10.0625 492.667969 9.976562 492.632812 9.914062 492.566406 C 9.847656 492.503906 9.8125 492.414062 9.8125 492.324219 L 9.8125 489.859375 C 9.8125 489.667969 9.96875 489.515625 10.15625 489.515625 L 11.546875 489.515625 C 11.902344 489.488281 12.179688 489.191406 12.179688 488.835938 C 12.179688 488.644531 12.105469 488.46875 11.964844 488.339844 C 11.828125 488.207031 11.644531 488.140625 11.457031 488.152344 C 11.449219 488.152344 11.441406 488.15625 11.4375 488.15625 L 10.15625 488.152344 C 10.066406 488.152344 9.976562 488.117188 9.914062 488.054688 C 9.851562 487.988281 9.8125 487.902344 9.8125 487.8125 L 9.8125 486.417969 C 9.789062 486.0625 9.492188 485.785156 9.132812 485.785156 C 8.941406 485.785156 8.765625 485.863281 8.636719 486 C 8.507812 486.140625 8.441406 486.320312 8.453125 486.511719 C 8.453125 486.515625 8.453125 486.523438 8.453125 486.53125 L 8.453125 487.8125 C 8.453125 488 8.300781 488.152344 8.109375 488.152344 L 5.644531 488.152344 C 5.453125 488.152344 5.300781 488 5.300781 487.8125 L 5.300781 486.417969 C 5.273438 486.0625 4.976562 485.785156 4.621094 485.785156 C 4.429688 485.785156 4.253906 485.863281 4.125 486 C 3.992188 486.140625 3.929688 486.320312 3.9375 486.511719 C 3.941406 486.515625 3.941406 486.523438 3.941406 486.53125 L 3.941406 487.8125 C 3.941406 488 3.785156 488.152344 3.597656 488.152344 L 2.203125 488.152344 C 1.847656 488.179688 1.570312 488.476562 1.570312 488.832031 C 1.570312 489.023438 1.648438 489.199219 1.785156 489.332031 C 1.925781 489.460938 2.105469 489.527344 2.296875 489.515625 C 2.300781 489.515625 2.308594 489.511719 2.316406 489.515625 L 3.597656 489.515625 C 3.785156 489.515625 3.9375 489.667969 3.9375 489.855469 L 3.9375 492.324219 C 3.9375 492.414062 3.902344 492.5 3.839844 492.566406 C 3.773438 492.628906 3.6875 492.664062 3.597656 492.664062 L 2.203125 492.664062 C 1.847656 492.691406 1.570312 492.988281 1.570312 493.347656 C 1.570312 493.535156 1.648438 493.710938 1.785156 493.84375 C 1.925781 493.972656 2.105469 494.039062 2.296875 494.027344 C 2.300781 494.027344 2.308594 494.027344 2.316406 494.027344 L 3.597656 494.027344 C 3.785156 494.027344 3.9375 494.179688 3.9375 494.371094 L 3.9375 495.761719 C 3.964844 496.117188 4.261719 496.394531 4.617188 496.394531 C 4.808594 496.394531 4.984375 496.320312 5.117188 496.179688 C 5.246094 496.042969 5.3125 495.859375 5.300781 495.671875 C 5.300781 495.664062 5.300781 495.65625 5.300781 495.652344 L 5.300781 494.371094 C 5.300781 494.277344 5.335938 494.191406 5.398438 494.128906 C 5.464844 494.0625 5.550781 494.027344 5.640625 494.027344 L 8.109375 494.027344 C 8.296875 494.027344 8.453125 494.179688 8.453125 494.371094 Z M 8.449219 495.761719 " fill-opacity="1" fill-rule="nonzero"/></g><path fill="#000000" d="M 8.109375 492.667969 L 5.640625 492.667969 C 5.453125 492.667969 5.300781 492.511719 5.300781 492.324219 L 5.300781 489.855469 C 5.300781 489.667969 5.453125 489.515625 5.644531 489.515625 L 8.109375 489.515625 C 8.300781 489.515625 8.453125 489.667969 8.453125 489.855469 L 8.453125 492.324219 C 8.453125 492.511719 8.296875 492.667969 8.109375 492.667969 Z M 5.984375 491.980469 L 7.765625 491.980469 L 7.769531 490.199219 L 5.984375 490.199219 Z M 5.984375 491.980469 " fill-opacity="1" fill-rule="nonzero"/></svg>